<?xml version="1.0" encoding="UTF-8"?>
<!DOCTYPE svg PUBLIC "-//W3C//DTD SVG 1.1//EN" "http://www.w3.org/Graphics/SVG/1.1/DTD/svg11.dtd">
<!-- Creator: CorelDRAW 2017 -->
<?xml-stylesheet href="eye.css" type="text/css"?>
<svg xmlns="http://www.w3.org/2000/svg" xml:space="preserve" width="36px" height="36px" version="1.1" style="shape-rendering:geometricPrecision; text-rendering:geometricPrecision; image-rendering:optimizeQuality; fill-rule:evenodd; clip-rule:evenodd"
viewBox="0 0 2.04 2.02"
 xmlns:xlink="http://www.w3.org/1999/xlink">
 <g id="Слой_x0020_1">
  <metadata id="CorelCorpID_0Corel-Layer"/>
  <g id="_2405256381216">
   <path class="fil0 str0" d="M1.02 0.15c0.17,0 0.3,0.13 0.3,0.3 0,0.16 -0.13,0.29 -0.3,0.29 -0.16,0 -0.3,-0.13 -0.3,-0.29 0,-0.17 0.14,-0.3 0.3,-0.3zm0 0.07c0.13,0 0.23,0.1 0.23,0.23 0,0.12 -0.1,0.22 -0.23,0.22 -0.13,0 -0.23,-0.1 -0.23,-0.22 0,-0.13 0.1,-0.23 0.23,-0.23z"/>
   <path class="fil0 str0" d="M1.02 0.03c0.5,0 0.91,0.18 0.91,0.42 0,0.23 -0.41,0.41 -0.91,0.41 -0.5,0 -0.91,-0.18 -0.91,-0.41 0,-0.24 0.41,-0.42 0.91,-0.42zm0 0.07c0.46,0 0.84,0.15 0.84,0.35 0,0.19 -0.38,0.34 -0.84,0.34 -0.46,0 -0.84,-0.15 -0.84,-0.34 0,-0.2 0.38,-0.35 0.84,-0.35z"/>
  </g>
  <path class="fil0 str0" d="M2.01 1.54c0,0.36 -0.74,0.46 -0.99,0.46 -0.54,0 -0.99,-0.21 -0.99,-0.46 0,0 0,0 0,0 0,-0.02 0.01,-0.04 0.03,-0.04 0.02,0 0.04,0.02 0.04,0.04 0,0.21 0.41,0.38 0.92,0.38 0.51,0 0.92,-0.17 0.92,-0.38l0 0 0 0c0,-0.02 0.02,-0.04 0.04,-0.04 0.02,0 0.03,0.02 0.03,0.04z"/>
 </g>
</svg>
