<svg width="32" height="32" viewBox="0 0 32 32" xmlns="http://www.w3.org/2000/svg">
    <path
        d="M16.0014 12C14.9405 12 13.9231 12.4214 13.1729 13.1716C12.4228 13.9217 12.0014 14.9391 12.0014 16C12.0014 17.0609 12.4228 18.0783 13.1729 18.8284C13.9231 19.5786 14.9405 20 16.0014 20C17.0622 20 18.0796 19.5786 18.8298 18.8284C19.5799 18.0783 20.0014 17.0609 20.0014 16C20.0014 14.9391 19.5799 13.9217 18.8298 13.1716C18.0796 12.4214 17.0622 12 16.0014 12ZM16.0014 9.33332C17.7695 9.33332 19.4652 10.0357 20.7154 11.2859C21.9656 12.5362 22.668 14.2319 22.668 16C22.668 17.7681 21.9656 19.4638 20.7154 20.714C19.4652 21.9643 17.7695 22.6667 16.0014 22.6667C14.2332 22.6667 12.5376 21.9643 11.2873 20.714C10.0371 19.4638 9.33469 17.7681 9.33469 16C9.33469 14.2319 10.0371 12.5362 11.2873 11.2859C12.5376 10.0357 14.2332 9.33332 16.0014 9.33332ZM24.668 8.99999C24.668 9.44202 24.4924 9.86594 24.1799 10.1785C23.8673 10.4911 23.4434 10.6667 23.0014 10.6667C22.5593 10.6667 22.1354 10.4911 21.8228 10.1785C21.5103 9.86594 21.3347 9.44202 21.3347 8.99999C21.3347 8.55796 21.5103 8.13404 21.8228 7.82148C22.1354 7.50892 22.5593 7.33332 23.0014 7.33332C23.4434 7.33332 23.8673 7.50892 24.1799 7.82148C24.4924 8.13404 24.668 8.55796 24.668 8.99999ZM16.0014 5.33332C12.7027 5.33332 12.164 5.34266 10.6294 5.41066C9.58402 5.45999 8.88269 5.59999 8.23202 5.85332C7.6878 6.05382 7.19565 6.37417 6.79202 6.79066C6.37505 7.19415 6.05424 7.68631 5.85335 8.23066C5.60002 8.88399 5.46002 9.58399 5.41202 10.628C5.34269 12.1 5.33335 12.6147 5.33335 16C5.33335 19.3 5.34269 19.8373 5.41069 21.372C5.46002 22.416 5.60002 23.1187 5.85202 23.768C6.07869 24.348 6.34535 24.7653 6.78802 25.208C7.23735 25.656 7.65469 25.924 8.22802 26.1453C8.88669 26.4 9.58802 26.5413 10.628 26.5893C12.1 26.6587 12.6147 26.6667 16 26.6667C19.3 26.6667 19.8374 26.6573 21.372 26.5893C22.4147 26.54 23.116 26.4 23.768 26.148C24.3122 25.9475 24.8044 25.6271 25.208 25.2107C25.6574 24.7627 25.9254 24.3453 26.1467 23.7707C26.4 23.1147 26.5414 22.4133 26.5894 21.3707C26.6587 19.9 26.6667 19.384 26.6667 16C26.6667 12.7013 26.6574 12.1627 26.5894 10.628C26.54 9.58532 26.3987 8.88132 26.1467 8.23066C25.9462 7.68643 25.6258 7.19428 25.2094 6.79066C24.8059 6.37369 24.3137 6.05287 23.7694 5.85199C23.116 5.59866 22.4147 5.45866 21.372 5.41066C19.9014 5.34132 19.3867 5.33332 16 5.33332M16 2.66666C19.6227 2.66666 20.0747 2.67999 21.4974 2.74666C22.916 2.81332 23.884 3.03599 24.7334 3.36666C25.6134 3.70532 26.3547 4.16399 27.096 4.90399C27.7743 5.5703 28.2989 6.37662 28.6334 7.26666C28.9627 8.11599 29.1867 9.08399 29.2534 10.504C29.316 11.9253 29.3334 12.3773 29.3334 16C29.3334 19.6227 29.32 20.0747 29.2534 21.496C29.1867 22.9173 28.9627 23.8827 28.6334 24.7333C28.2989 25.6234 27.7743 26.4297 27.096 27.096C26.4297 27.7742 25.6234 28.2989 24.7334 28.6333C23.884 28.9627 22.916 29.1867 21.4974 29.2533C20.0747 29.316 19.6227 29.3333 16 29.3333C12.3774 29.3333 11.9254 29.32 10.5027 29.2533C9.08402 29.1867 8.11735 28.9627 7.26669 28.6333C6.37665 28.2989 5.57033 27.7742 4.90402 27.096C4.22576 26.4297 3.70111 25.6234 3.36669 24.7333C3.03602 23.884 2.81335 22.916 2.74669 21.496C2.68269 20.0747 2.66669 19.6227 2.66669 16C2.66669 12.3773 2.68002 11.9253 2.74669 10.504C2.81335 9.08266 3.03602 8.11732 3.36669 7.26666C3.70111 6.37662 4.22576 5.5703 4.90402 4.90399C5.57033 4.22573 6.37665 3.70108 7.26669 3.36666C8.11602 3.03599 9.08269 2.81332 10.5027 2.74666C11.9267 2.68399 12.3787 2.66666 16.0014 2.66666" />
</svg>