<svg width="32" height="32" viewBox="0 0 32 32" fill="none" xmlns="http://www.w3.org/2000/svg">
<path d="M14.6666 2.66666V11.2187C12.8204 10.876 10.9134 11.1107 9.20536 11.8909C7.49732 12.671 6.07125 13.9587 5.12138 15.5785C4.1715 17.1983 3.74398 19.0716 3.89704 20.9431C4.05009 22.8146 4.77629 24.5935 5.97673 26.0374C7.17716 27.4814 8.79349 28.5203 10.6056 29.0125C12.4177 29.5048 14.3375 29.4266 16.1035 28.7885C17.8696 28.1504 19.396 26.9835 20.475 25.4467C21.554 23.9098 22.133 22.0778 22.1333 20.2V15.2187C23.5666 15.8283 25.1091 16.1395 26.6666 16.1333H28V8.66666H26.6666C24.1293 8.66666 22.1333 6.61732 22.1333 3.99999V2.66666H14.6666ZM17.3333 5.33332H19.584C20.1093 8.29332 22.3573 10.6613 25.3333 11.2133V13.3707C23.9493 13.168 22.7 12.648 21.5426 11.8733L19.4666 10.484V20.2C19.4665 21.4932 19.0787 22.7566 18.3533 23.8271C17.6278 24.8976 16.5981 25.726 15.397 26.2054C14.196 26.6847 12.8788 26.793 11.6156 26.5161C10.3524 26.2393 9.20126 25.5901 8.31078 24.6524C7.4203 23.7147 6.83141 22.5315 6.62017 21.2557C6.40893 19.9799 6.58505 18.6701 7.12578 17.4954C7.6665 16.3207 8.547 15.3351 9.65355 14.6659C10.7601 13.9967 12.0419 13.6747 13.3333 13.7413V15.88C12.4646 15.813 11.5959 16.0094 10.8405 16.4436C10.0851 16.8778 9.47814 17.5296 9.09883 18.314C8.71952 19.0984 8.58548 19.9789 8.71419 20.8406C8.8429 21.7024 9.22839 22.5053 9.82035 23.1446C10.4123 23.7839 11.1832 24.2299 12.0325 24.4244C12.8818 24.619 13.77 24.5529 14.5812 24.235C15.3925 23.9171 16.089 23.362 16.5799 22.6422C17.0709 21.9224 17.3334 21.0713 17.3333 20.2V5.33332ZM11.3333 20.2C11.3333 19.758 11.5089 19.334 11.8215 19.0215C12.134 18.7089 12.558 18.5333 13 18.5333C13.442 18.5333 13.8659 18.7089 14.1785 19.0215C14.491 19.334 14.6666 19.758 14.6666 20.2C14.6666 20.642 14.491 21.0659 14.1785 21.3785C13.8659 21.6911 13.442 21.8667 13 21.8667C12.558 21.8667 12.134 21.6911 11.8215 21.3785C11.5089 21.0659 11.3333 20.642 11.3333 20.2Z" fill="#FFF4E8"/>
</svg>
