<svg width="32" height="32" viewBox="0 0 32 32" fill="none" xmlns="http://www.w3.org/2000/svg">
<path d="M21.3333 10.9933V20.6667C21.3329 22.4667 20.7721 24.222 19.7286 25.6887C18.6851 27.1555 17.2108 28.2609 15.5104 28.8516C13.81 29.4422 11.9679 29.4887 10.2398 28.9847C8.51179 28.4806 6.98357 27.451 5.86738 26.0388C4.75119 24.6266 4.10242 22.9019 4.01115 21.1041C3.91988 19.3064 4.39065 17.5248 5.35809 16.0069C6.32552 14.4889 7.74161 13.3098 9.40973 12.6333C11.0778 11.9569 12.9152 11.8166 14.6667 12.232V16.4493C13.7531 16.016 12.7235 15.8911 11.7328 16.0934C10.7421 16.2958 9.84394 16.8144 9.17347 17.5713C8.50299 18.3282 8.09649 19.2824 8.01513 20.2902C7.93378 21.2981 8.18197 22.3051 8.72236 23.1597C9.26275 24.0144 10.0661 24.6703 11.0115 25.029C11.9569 25.3876 12.9932 25.4295 13.9645 25.1483C14.9357 24.8671 15.7894 24.278 16.3969 23.4698C17.0045 22.6615 17.3331 21.6778 17.3333 20.6667V2.66666H21.3333C21.3333 4.43477 22.0357 6.13046 23.286 7.3807C24.5362 8.63094 26.2319 9.33332 28 9.33332V13.3333C25.5759 13.3365 23.2236 12.5109 21.3333 10.9933Z" fill="#FFF4E8"/>
</svg>
