<svg width="32" height="32" viewBox="0 0 32 32" fill="none" xmlns="http://www.w3.org/2000/svg">
<path d="M26.1427 9.32666C26.0414 8.92933 25.7534 8.62933 25.424 8.53733C24.84 8.37333 22.0014 7.99999 16.0014 7.99999C10.0014 7.99999 7.16402 8.37333 6.57602 8.53733C6.25069 8.62799 5.96269 8.92799 5.86002 9.32666C5.71469 9.89199 5.33469 12.26 5.33469 16C5.33469 19.74 5.71469 22.1067 5.86002 22.6747C5.96135 23.0707 6.24935 23.3707 6.57735 23.4613C7.16402 23.6267 10 24 16 24C22 24 24.8387 23.6267 25.4254 23.4627C25.7507 23.372 26.0387 23.072 26.1414 22.6733C26.288 22.108 26.6667 19.7333 26.6667 16C26.6667 12.2667 26.288 9.89333 26.1427 9.32666ZM28.724 8.664C29.3334 11.04 29.3334 16 29.3334 16C29.3334 16 29.3334 20.96 28.724 23.336C28.3854 24.6493 27.3947 25.6827 26.14 26.032C23.8627 26.6667 16 26.6667 16 26.6667C16 26.6667 8.14269 26.6667 5.86002 26.032C4.60002 25.6773 3.61069 24.6453 3.27602 23.336C2.66669 20.96 2.66669 16 2.66669 16C2.66669 16 2.66669 11.04 3.27602 8.664C3.61469 7.35066 4.60535 6.31733 5.86002 5.96799C8.14402 5.33333 16.0014 5.33333 16.0014 5.33333C16.0014 5.33333 23.8627 5.33333 26.1414 5.96799C27.4 6.32266 28.3907 7.35466 28.7254 8.664M13.3347 20.6667V11.3333L21.3347 16L13.3347 20.6667Z" fill="#FFF4E8"/>
</svg>
