<svg width="32" height="32" viewBox="0 0 32 32" fill="none" xmlns="http://www.w3.org/2000/svg">
<path d="M16.3254 5.33333C17.0374 5.33733 18.8187 5.35466 20.712 5.43066L21.384 5.45999C23.2894 5.54933 25.1934 5.70399 26.1387 5.96666C27.3987 6.32133 28.388 7.35333 28.7227 8.66266C29.256 10.7427 29.3227 14.7987 29.3307 15.7813L29.332 15.984V16.216C29.3227 17.1987 29.256 21.256 28.7227 23.3347C28.384 24.648 27.3934 25.6813 26.1387 26.0307C25.1934 26.2933 23.2894 26.448 21.384 26.5373L20.712 26.568C18.8187 26.6427 17.0374 26.6613 16.3254 26.664L16.012 26.6653H15.672C14.1654 26.656 7.86402 26.588 5.85869 26.0307C4.60002 25.676 3.60935 24.644 3.27469 23.3347C2.74135 21.2547 2.67469 17.1987 2.66669 16.216V15.7813C2.67469 14.7987 2.74135 10.7413 3.27469 8.66266C3.61335 7.34933 4.60402 6.31599 5.86002 5.96799C7.86402 5.40933 14.1667 5.34133 15.6734 5.33333H16.3254ZM13.332 11.3333V20.6667L21.332 16L13.332 11.3333Z" fill="#FFF4E8"/>
</svg>
